{"title":"Tyler Farr - Redneck Crazy [Music Video] 720p [Sbyky]","uid":8554591,"size":45812046,"categoryP":"video","categoryS":"music_videos","magnet":"?xt=urn:btih:10b3c14ce5318fc1d10f200e0db520c269869d56&amp;dn=Tyler+Farr+-+Redneck+Crazy+%5BMusic+Video%5D+720p+%5BSbyky%5D&amp;tr=udp%3A%2F%2Ftracker.openbittorrent.com%3A80&amp;tr=udp%3A%2F%2Fopen.demonii.com%3A1337&amp;tr=udp%3A%2F%2Ftracker.coppersurfer.tk%3A6969&amp;tr=udp%3A%2F%2Fexodus.desync.com%3A6969","seeders":1,"leechers":0,"uploader":"Sbyky","files":-1,"time":1370728918,"description":"[IMG]http://www.shotpix.com/images/10691006806428642239.jpg[/IMG]\n\nGeneral\nComplete name                            : Tyler Farr - Redneck Crazy [Music Video] 720p [Sbyky].mp4\nFormat                                   : MPEG-4\nFormat profile                           : Base Media / Version 2\nCodec ID                                 : mp42\nFile size                                : 43.7 MiB\nDuration                                 : 3mn 53s\nOverall bit rate mode                    : Variable\nOverall bit rate                         : 1 569 Kbps\nEncoded date                             : UTC 2013-04-25 17:20:33\nTagged date                              : UTC 2013-04-25 17:20:33\n\nVideo\nID                                       : 1\nFormat                                   : AVC\nFormat/Info                              : Advanced Video Codec\nFormat profile                           : &lt;a class=&quot;__cf_email__&quot; href=&quot;/cdn-cgi/l/email-protection&quot; data-cfemail=&quot;1a52737d725a5629342b&quot;&gt;[email&amp;#160;protected]&lt;/a&gt;&lt;script cf-hash='f9e31' type=&quot;text/javascript&quot;&gt;\n/* &lt;![CDATA[ */!function(){try{var t=&quot;currentScript&quot;in document?document.currentScript:function(){for(var t=document.getElementsByTagName(&quot;script&quot;),e=t.length;e--;)if(t[e].getAttribute(&quot;cf-hash&quot;))return t[e]}();if(t&amp;&amp;t.previousSibling){var e,r,n,i,c=t.previousSibling,a=c.getAttribute(&quot;data-cfemail&quot;);if(a){for(e=&quot;&quot;,r=parseInt(a.substr(0,2),16),n=2;a.length-n;n+=2)i=parseInt(a.substr(n,2),16)^r,e+=String.fromCharCode(i);e=document.createTextNode(e),c.parentNode.replaceChild(e,c)}}}catch(u){}}();/* ]]&gt; */&lt;/script&gt;\nFormat settings, CABAC                   : Yes\nFormat settings, ReFrames                : 1 frame\nCodec ID                                 : avc1\nCodec ID/Info                            : Advanced Video Coding\nDuration                                 : 3mn 53s\nBit rate                                 : 1 375 Kbps\nMaximum bit rate                         : 3 751 Kbps\nWidth                                    : 1 280 pixels\nHeight                                   : 720 pixels\nDisplay aspect ratio                     : 16:9\nFrame rate mode                          : Constant\nFrame rate                               : 23.976 fps\nColor space                              : YUV\nChroma subsampling                       : 4:2:0\nBit depth                                : 8 bits\nScan type                                : Progressive\nBits/(Pixel*Frame)                       : 0.062\nStream size                              : 38.3 MiB (88%)\nTagged date                              : UTC 2013-04-25 17:20:37\n\nAudio\nID                                       : 2\nFormat                                   : AAC\nFormat/Info                              : Advanced Audio Codec\nFormat profile                           : LC\nCodec ID                                 : 40\nDuration                                 : 3mn 53s\nBit rate mode                            : Variable\nBit rate                                 : 192 Kbps\nMaximum bit rate                         : 204 Kbps\nChannel(s)                               : 2 channels\nChannel positions                        : Front: L R\nSampling rate                            : 44.1 KHz\nCompression mode                         : Lossy\nStream size                              : 5.35 MiB (12%)\nTitle                                    : IsoMedia File Produced by Google, 5-11-2011\nEncoded date                             : UTC 2013-04-25 17:20:35\nTagged date                              : UTC 2013-04-25 17:20:37\n\nShared By Sbyky\n[IMG]http://www.shotpix.com/images/76014917432015785852.gif[/IMG]\n[IMG]http://www.shotpix.com/images/54100788659511547411.gif[/IMG]","torrent":{"xt":"urn:btih:10b3c14ce5318fc1d10f200e0db520c269869d56","amp;dn":"Tyler+Farr+-+Redneck+Crazy+%5BMusic+Video%5D+720p+%5BSbyky%5D","amp;tr":["udp%3A%2F%2Ftracker.openbittorrent.com%3A80","udp%3A%2F%2Fopen.demonii.com%3A1337","udp%3A%2F%2Ftracker.coppersurfer.tk%3A6969","udp%3A%2F%2Fexodus.desync.com%3A6969"],"infoHash":"10b3c14ce5318fc1d10f200e0db520c269869d56","infoHashBuffer":{"type":"Buffer","data":[16,179,193,76,229,49,143,193,209,15,32,14,13,181,32,194,105,134,157,86]},"announce":[],"urlList":[]}}